<?xml version="1.0" standalone="no"?>
<!DOCTYPE svg PUBLIC "-//W3C//DTD SVG 20010904//EN"
 "http://www.w3.org/TR/2001/REC-SVG-20010904/DTD/svg10.dtd">
<svg version="1.0" xmlns="http://www.w3.org/2000/svg"
 width="196.000000pt" height="196.000000pt" viewBox="0 0 196.000000 196.000000"
 preserveAspectRatio="xMidYMid meet">
<metadata>
Created by potrace 1.11, written by Peter Selinger 2001-2013
</metadata>
<g transform="translate(0.000000,196.000000) scale(0.100000,-0.100000)"
fill="#000000" stroke="none">
<path d="M0 1440 c0 -499 1 -520 18 -520 29 0 52 33 52 73 0 34 2 37 30 37
l30 0 0 -180 0 -180 -30 0 c-28 0 -30 2 -30 38 0 41 -23 72 -53 72 -15 0 -17
-18 -17 -180 0 -145 3 -180 14 -180 7 0 25 -9 38 -20 22 -17 35 -42 74 -145 4
-11 6 -25 5 -32 -1 -6 3 -14 9 -18 5 -3 10 -18 10 -32 0 -35 9 -24 16 18 2 19
8 52 11 74 3 22 7 50 7 63 1 21 4 23 36 17 19 -4 40 -11 47 -16 6 -6 19 -45
28 -87 9 -42 20 -81 25 -85 4 -4 15 33 26 84 16 78 22 92 42 100 34 13 44 11
38 -8 -2 -10 -19 -71 -37 -135 l-32 -118 -38 0 c-37 0 -39 2 -49 43 -6 23 -16
60 -22 82 l-11 40 -16 -70 c-22 -90 -25 -95 -66 -95 -28 0 -34 4 -40 28 -9 37
-73 199 -95 242 l-19 35 -1 -192 0 -193 980 0 980 0 0 187 c0 176 -1 185 -17
171 -10 -9 -42 -23 -70 -33 l-53 -17 0 -114 0 -114 -35 0 -35 0 0 110 c0 119
1 117 -58 101 -42 -12 -64 -4 -60 22 3 17 20 23 123 44 65 13 138 32 162 43
l43 19 0 180 c0 166 -1 181 -17 181 -34 -1 -53 -25 -53 -69 0 -39 -1 -41 -30
-41 l-30 0 0 180 0 180 30 0 c28 0 30 -2 30 -38 0 -41 23 -72 53 -72 16 0 17
41 17 520 l0 520 -481 0 -480 0 22 -31 c13 -18 24 -52 27 -80 4 -39 8 -48 25
-51 12 -2 28 -15 36 -29 20 -36 -2 -82 -44 -89 -42 -7 -44 -35 -3 -60 43 -26
92 -25 129 1 26 18 29 25 23 55 -8 42 8 64 46 64 29 0 60 -27 60 -53 0 -9 -13
-26 -30 -39 -36 -27 -38 -51 -5 -83 32 -33 80 -33 120 -1 l30 24 -25 27 c-19
20 -22 30 -14 42 19 30 42 39 63 26 16 -10 25 -10 48 2 36 19 69 19 77 0 3
-10 -2 -19 -17 -26 -33 -15 -94 -102 -145 -206 l-45 -93 -396 0 -396 0 -23 58
c-27 70 -117 208 -149 229 -23 15 -31 47 -15 57 5 3 28 -4 51 -16 33 -16 45
-18 51 -9 11 18 50 9 67 -15 12 -18 11 -24 -9 -49 l-22 -28 35 -28 c19 -16 43
-29 54 -29 32 0 63 27 70 61 6 25 2 36 -19 58 -32 34 -33 51 -1 81 21 20 28
22 50 12 29 -13 41 -52 26 -80 -9 -18 -7 -24 18 -41 37 -27 96 -27 139 -1 38
24 43 50 8 50 -29 0 -66 42 -66 74 0 28 20 53 45 58 16 3 21 14 26 54 4 28 14
63 24 77 l17 27 -481 0 -481 0 0 -520z m1370 -149 c0 -65 25 -61 -385 -61
l-373 0 -5 38 c-2 20 -2 40 0 45 2 4 175 7 384 7 l379 0 0 -29z m-850 -441 l0
-380 -90 0 -90 0 0 380 0 380 90 0 90 0 0 -380z m1100 0 l0 -380 -95 0 -95 0
0 380 0 380 95 0 95 0 0 -380z m-1310 5 l0 -305 -75 0 -75 0 0 305 0 305 75 0
75 0 0 -305z m1490 0 l0 -305 -75 0 -75 0 0 305 0 305 75 0 75 0 0 -305z
m-400 -10 l0 -85 -425 0 -425 0 0 85 0 85 425 0 425 0 0 -85z m-553 -385 c7
-14 13 -49 13 -77 0 -46 -3 -53 -20 -53 -18 0 -20 7 -20 55 0 42 -4 57 -16 62
-23 8 -34 -14 -34 -69 0 -36 -4 -48 -15 -48 -11 0 -15 12 -15 48 0 55 -11 77
-34 69 -12 -5 -16 -20 -16 -62 0 -49 -2 -55 -21 -55 -20 0 -21 4 -17 64 5 88
13 95 106 93 71 -2 77 -4 89 -27z m73 -25 c0 -48 2 -55 20 -55 18 0 20 7 20
55 0 48 2 55 20 55 18 0 20 -7 20 -60 0 -47 -4 -64 -20 -80 -26 -26 -46 -25
-75 5 -21 20 -25 34 -25 80 0 48 2 55 20 55 18 0 20 -7 20 -55z m230 35 c0
-17 -7 -20 -46 -20 -27 0 -43 -4 -39 -10 3 -5 16 -10 27 -10 26 0 58 -27 58
-48 0 -31 -32 -52 -77 -52 -36 0 -43 3 -43 20 0 17 7 20 40 20 22 0 40 5 40
10 0 6 -13 10 -28 10 -35 0 -52 16 -52 50 0 38 18 50 72 50 41 0 48 -3 48 -20z
m150 0 c0 -13 -7 -20 -20 -20 -16 0 -19 -8 -22 -57 -2 -46 -7 -59 -20 -61 -16
-3 -18 5 -18 57 0 58 -1 61 -25 61 -18 0 -25 5 -25 20 0 18 7 20 65 20 58 0
65 -2 65 -20z m-137 -182 c-11 -13 -31 -43 -43 -67 -26 -52 -21 -83 22 -123
25 -23 27 -28 12 -28 -39 0 -60 12 -81 45 -28 43 -57 41 -61 -3 -3 -26 -8 -32
-28 -32 -24 0 -24 1 -24 95 0 95 0 95 25 95 23 0 25 -4 25 -40 0 -35 3 -40 23
-40 17 0 26 10 40 43 17 43 57 76 91 77 19 0 19 -1 -1 -22z m-583 -31 c0 -14
-9 -26 -22 -32 -18 -8 -23 -18 -23 -50 0 -32 5 -42 23 -50 31 -14 29 -45 -3
-45 -40 0 -75 44 -75 94 0 51 21 83 63 95 18 5 33 10 35 10 1 1 2 -9 2 -22z
m690 -2 c0 -16 -6 -25 -15 -25 -40 0 -44 -93 -5 -105 27 -9 27 -45 0 -45 -36
0 -70 44 -70 90 0 53 14 78 53 95 18 8 33 14 35 15 1 0 2 -11 2 -25z m-615
-10 c35 -34 35 -106 0 -140 -25 -26 -65 -34 -65 -14 0 6 11 24 25 41 27 32 26
72 -3 96 -9 6 -17 19 -18 27 -4 24 34 18 61 -10z m233 9 c29 -20 30 -68 2 -87
l-21 -14 22 -37 21 -36 -25 0 c-18 0 -31 10 -45 34 -26 43 -56 43 -57 0 0 -22
-5 -30 -22 -32 -22 -3 -23 -1 -23 92 l0 96 63 0 c40 0 70 -5 85 -16z m453 3
c23 -18 39 -52 39 -86 0 -35 -43 -91 -71 -91 -25 0 -25 31 1 53 11 9 20 28 20
42 0 14 -9 34 -20 45 -38 38 -11 70 31 37z m141 -59 c3 -68 5 -73 26 -76 40
-6 52 14 52 84 0 62 1 64 26 64 l26 0 -4 -76 c-4 -91 -23 -114 -93 -114 -64 0
-85 31 -85 121 0 67 1 69 25 69 23 0 24 -3 27 -72z"/>
<path d="M787 210 c-5 -19 -2 -21 31 -18 47 4 52 32 6 36 -25 2 -33 -1 -37
-18z"/>
</g>
</svg>
